<?xml version="1.0" standalone="no"?>
<!DOCTYPE svg PUBLIC "-//W3C//DTD SVG 20010904//EN"
 "http://www.w3.org/TR/2001/REC-SVG-20010904/DTD/svg10.dtd">
<svg version="1.0" xmlns="http://www.w3.org/2000/svg"
 width="1426.000000pt" height="1426.000000pt" viewBox="0 0 1426.000000 1426.000000"
 preserveAspectRatio="xMidYMid meet">
<metadata>
Created by potrace 1.11, written by Peter Selinger 2001-2013
</metadata>
<g transform="translate(0.000000,1426.000000) scale(0.100000,-0.100000)"
fill="#000000" stroke="none">
<path d="M7409 12835 c-207 -53 -423 -328 -706 -898 -46 -92 -83 -169 -83
-172 0 -2 -13 -32 -29 -67 -151 -328 -361 -918 -441 -1240 -11 -45 -23 -88
-25 -95 -2 -6 -25 8 -52 34 -149 140 -453 346 -566 383 -112 36 -233 -13 -260
-105 -33 -109 -42 -911 -12 -1025 2 -8 6 -37 10 -64 32 -253 137 -487 322
-713 27 -32 54 -65 61 -74 11 -15 1 -22 -83 -63 -368 -179 -652 -434 -870
-781 -107 -170 -225 -436 -340 -765 -26 -74 -48 -139 -49 -145 -2 -5 -19 -62
-39 -125 -70 -225 -138 -482 -182 -695 -9 -44 -19 -89 -21 -100 -7 -32 -35
-178 -39 -200 -17 -95 -45 -280 -50 -325 -3 -30 -8 -66 -10 -80 -7 -45 -23
-206 -35 -360 -8 -107 -6 -681 3 -735 3 -16 8 -61 12 -98 3 -37 8 -76 10 -85
1 -9 6 -42 10 -72 3 -30 10 -71 15 -90 5 -19 11 -52 14 -74 23 -152 116 -435
202 -614 72 -152 113 -223 198 -342 389 -550 939 -946 1633 -1176 90 -29 173
-55 185 -58 13 -2 59 -13 103 -24 70 -18 157 -37 260 -57 25 -4 177 -26 290
-40 187 -25 741 -24 867 0 13 3 48 7 78 10 30 3 67 8 81 10 14 3 43 7 63 10
21 2 46 7 55 9 9 3 34 7 56 11 88 13 317 70 435 108 69 22 130 41 135 43 28 5
234 93 340 144 426 207 750 473 959 790 127 191 254 500 301 733 2 10 6 26 9
35 5 17 11 49 22 111 3 18 7 42 9 53 3 11 7 46 11 77 3 31 8 63 9 72 4 18 14
132 20 229 6 87 6 375 1 480 -7 125 -17 251 -21 280 -2 14 -6 55 -10 91 -3 36
-8 76 -10 90 -2 13 -6 44 -9 69 -29 259 -146 803 -243 1130 -13 47 -28 99 -33
115 -26 100 -153 471 -217 635 -136 349 -230 539 -368 745 -134 199 -301 387
-485 547 -290 250 -651 450 -1027 568 -56 17 -108 33 -115 34 -7 1 -31 8 -53
14 -63 18 -286 61 -328 64 -21 1 -40 5 -42 9 -3 3 16 33 41 65 94 120 208 303
279 449 81 166 122 281 159 448 23 106 30 141 41 232 3 21 7 50 10 64 12 74
22 165 30 261 3 41 8 95 10 120 22 218 22 771 0 1085 -7 101 -22 259 -29 303
-3 15 -7 50 -11 77 -15 125 -58 325 -91 425 -22 65 -81 180 -108 212 -62 70
-170 105 -257 83z m59 -437 c35 -123 65 -293 87 -498 3 -30 8 -71 10 -90 14
-117 20 -318 19 -635 0 -321 -4 -443 -19 -595 -16 -173 -23 -234 -30 -270 -2
-14 -7 -45 -10 -70 -14 -111 -78 -378 -105 -435 -96 -208 -113 -240 -217 -396
-67 -100 -202 -266 -272 -333 -39 -38 -44 -40 -113 -42 -93 -3 -246 -13 -278
-19 -14 -2 -45 -7 -70 -10 -25 -3 -54 -6 -65 -8 -70 -8 -107 457 -61 769 4 23
9 58 11 78 3 19 9 55 14 78 6 24 12 57 15 73 3 17 8 39 10 50 3 11 12 54 21
95 9 41 18 82 20 90 1 8 15 60 30 115 15 55 28 105 30 110 14 74 195 615 240
720 7 17 41 100 75 185 72 177 115 271 206 455 59 119 82 164 157 297 70 125
241 358 262 358 7 0 21 -33 33 -72z m-1758 -2134 c108 -82 202 -171 276 -259
47 -57 50 -62 43 -100 -13 -71 -18 -109 -24 -175 -4 -36 -9 -76 -11 -90 -5
-34 -5 -365 1 -413 9 -81 36 -218 49 -257 13 -37 12 -41 -4 -50 -34 -18 -57
-10 -101 37 -135 143 -244 299 -302 429 -26 60 -50 154 -61 249 -4 28 -9 64
-11 80 -3 17 -7 55 -10 85 -7 77 -7 549 1 561 7 12 29 -1 154 -97z m1395
-1568 c63 -4 122 -8 132 -10 10 -2 41 -7 68 -10 78 -11 157 -25 280 -51 67
-14 271 -80 372 -120 489 -195 879 -509 1166 -938 168 -252 361 -715 524
-1257 47 -158 141 -511 157 -590 2 -14 16 -81 31 -150 14 -69 28 -138 31 -155
2 -16 11 -66 19 -110 18 -96 22 -124 30 -194 4 -30 9 -63 11 -75 2 -11 6 -52
10 -91 3 -38 8 -77 9 -86 25 -131 24 -869 0 -909 -2 -3 -6 -35 -10 -70 -3 -36
-8 -72 -10 -80 -2 -8 -7 -31 -10 -50 -23 -139 -92 -370 -146 -488 -16 -35 -29
-65 -29 -67 0 -17 -139 -240 -175 -281 -5 -7 -25 -30 -42 -51 -176 -217 -541
-463 -893 -602 -154 -61 -367 -131 -449 -147 -12 -3 -51 -11 -85 -19 -63 -14
-96 -21 -155 -31 -18 -3 -42 -7 -53 -9 -11 -3 -46 -7 -77 -11 -31 -3 -58 -8
-61 -9 -4 -3 -81 -10 -215 -21 -63 -5 -443 -5 -514 1 -103 7 -182 15 -246 25
-33 5 -78 12 -100 15 -34 4 -188 33 -263 49 -12 3 -57 15 -100 26 -42 12 -81
23 -87 24 -28 6 -222 73 -305 106 -288 115 -614 306 -810 476 -279 241 -490
504 -624 777 -50 102 -146 368 -160 442 -3 17 -10 48 -15 70 -13 54 -49 266
-56 335 -26 252 -26 690 0 935 2 17 6 59 10 95 4 36 8 76 10 90 2 14 7 49 10
79 4 30 8 61 10 70 6 32 16 97 19 126 4 26 16 98 31 175 3 14 7 36 9 50 6 28
66 306 71 330 56 228 120 456 178 630 22 69 42 127 42 130 1 3 5 12 8 20 3 8
29 78 58 154 150 408 293 649 510 863 80 79 233 203 250 203 4 0 14 6 21 13
44 40 265 148 413 202 136 49 394 119 486 130 30 4 56 8 59 10 3 2 30 6 60 9
30 4 69 8 85 11 17 2 82 7 145 11 63 3 116 7 117 8 3 2 137 -2 248 -8z"/>
<path d="M8130 7403 c-79 -42 -98 -155 -38 -224 24 -27 58 -41 145 -58 105
-21 207 -91 258 -178 28 -48 87 -77 142 -69 60 8 98 37 118 91 23 60 14 101
-39 172 -120 163 -297 267 -476 279 -60 4 -82 2 -110 -13z"/>
<path d="M6168 7225 c-1 -1 -21 -5 -44 -8 -142 -20 -331 -153 -385 -272 -56
-124 80 -249 201 -185 14 7 42 33 64 57 70 80 123 107 224 118 86 9 142 67
142 146 0 85 -57 142 -146 146 -29 1 -54 0 -56 -2z"/>
<path d="M8396 6263 c-80 -20 -193 -150 -213 -243 -26 -121 -18 -210 27 -305
82 -171 264 -236 410 -147 66 41 141 153 155 233 18 108 7 208 -34 292 -31 63
-101 133 -157 158 -44 18 -139 24 -188 12z"/>
<path d="M6189 6194 c-110 -33 -204 -168 -218 -309 -16 -171 53 -320 180 -390
44 -23 65 -29 124 -29 59 0 78 4 125 29 136 74 210 255 174 427 -42 208 -210
326 -385 272z"/>
<path d="M7833 4340 c-12 -5 -57 -34 -100 -63 -186 -130 -335 -157 -478 -87
-33 16 -77 46 -98 66 -82 78 -181 76 -242 -4 -28 -38 -28 -130 1 -169 60 -80
217 -175 344 -207 91 -23 261 -16 355 14 146 46 357 176 390 240 33 65 14 148
-45 191 -30 22 -97 32 -127 19z"/>
</g>
</svg>
