<?xml version="1.0" encoding="utf-8"?>
<!-- Generator: Adobe Illustrator 21.1.0, SVG Export Plug-In . SVG Version: 6.00 Build 0)  -->
<svg version="1.1" id="Layer_1" xmlns="http://www.w3.org/2000/svg" xmlns:xlink="http://www.w3.org/1999/xlink" x="0px" y="0px"
	 viewBox="0 0 135.3 135.3" style="enable-background:new 0 0 135.3 135.3;" xml:space="preserve">
<style type="text/css">
	.st0{fill:#FFFFFF;}
</style>
<title>Asset 1</title>
<g id="Layer_2">
	<g id="ON_WHITE">
		<path class="st0" d="M92.5,4.7C57.8-9,18.5,8,4.7,42.8s3.3,74.1,38.1,87.8c34.7,13.7,74.1-3.3,87.8-38
			C144.3,57.8,127.3,18.5,92.5,4.7z M127,91.1c-12.9,32.7-50,48.8-82.7,35.9S-4.5,77,8.4,44.2c12.9-32.7,50-48.8,82.7-35.9
			C123.8,21.3,139.9,58.4,127,91.1z"/>
		<path class="st0" d="M61.8,30.7L61.8,30.7l1.6,0c0.5,0,0.9-0.5,0.9-1l-0.1-4l2.4-0.1c1.6,0,3.1-0.5,4.4-1.5c1.3-1,2-2.6,1.9-4.2
			c0-1.5-0.7-3-1.9-3.9c-1.3-0.9-2.9-1.4-4.4-1.3l-5.2,0.2c-0.5,0-0.9,0.5-0.9,1l0.4,14C60.9,30.3,61.3,30.7,61.8,30.7z M66.6,22.2
			l-2.5,0.1L64,18.1l2.6-0.1c1.3,0,2.8,0.3,2.9,2C69.5,21.6,68,22.2,66.6,22.2z"/>
		<path class="st0" d="M75.5,31l1.5,0.5c0.5,0.2,1-0.1,1.2-0.6c0,0,0,0,0,0l1.5-4.2l2.4,0.9l1.8,6c0.1,0.3,0.3,0.5,0.6,0.6l1.8,0.7
			c0.1,0,0.2,0.1,0.3,0.1c0.2,0,0.5-0.1,0.7-0.3c0.3-0.3,0.4-0.6,0.2-1l-1.7-5.5c2.8-0.1,4.9-2.4,4.8-5.2c0-0.8-0.2-1.5-0.6-2.2
			c-0.8-1.3-2.1-2.3-3.6-2.8L81,16c-0.5-0.2-1,0.1-1.2,0.6c0,0,0,0,0,0l-4.8,13.2c-0.1,0.2-0.1,0.5,0,0.7C75,30.7,75.2,30.9,75.5,31
			z M85.3,21.3c1.1,0.4,2.4,1.2,1.8,2.6c-0.6,1.7-2.6,1.1-3.2,0.9l-3.1-1.1l1.3-3.5L85.3,21.3z"/>
		<path class="st0" d="M99.3,43.2c2.2,0,4.4-0.9,5.9-2.5c3.1-3.1,3.2-8.1,0.1-11.2c-0.1-0.1-0.2-0.2-0.2-0.2
			c-3.2-3.1-8.3-3.1-11.4,0.1c0,0-0.1,0.1-0.1,0.1c-3.1,3-3.2,8.1-0.2,11.2c0.1,0.1,0.2,0.2,0.3,0.3C95.2,42.3,97.2,43.2,99.3,43.2z
			 M102.7,31.5c1.8,1.8,1.8,4.7,0,6.5c0,0-0.1,0.1-0.1,0.1c-1.7,1.9-4.5,2.1-6.4,0.4c-1.9-1.7-2.1-4.5-0.4-6.4
			c0.1-0.1,0.2-0.2,0.3-0.4c0.9-1,2.2-1.5,3.5-1.6C100.8,30.3,101.9,30.7,102.7,31.5z"/>
		<path class="st0" d="M105,51.1c-0.5-0.1-0.8-0.5-1-0.9c-0.4-0.9-0.3-1.7,0.4-2.8c0.3-0.5,0.1-1-0.3-1.3c0,0,0,0-0.1,0l-1.4-0.6
			c-0.4-0.2-0.9,0-1.2,0.3c-1.2,1.7-1.4,4-0.5,5.9l0,0c0.7,1.9,2.6,3.1,4.6,3.1c1,0,2-0.3,2.9-0.7l8.5-4c0.5-0.2,0.7-0.8,0.5-1.2
			c0,0,0,0,0,0l-0.7-1.5c-0.2-0.5-0.8-0.7-1.3-0.5l-8.5,4C106.4,51.1,105.7,51.2,105,51.1z"/>
		<path class="st0" d="M119.1,57.5l-13.9,1.2c-0.2,0-0.5,0.1-0.6,0.3c-0.2,0.2-0.2,0.4-0.2,0.7l0.9,10.2c0.1,0.5,0.5,0.8,0.9,0.9
			h0.1l1.4-0.1c0.2,0,0.5-0.2,0.6-0.3c0.2-0.2,0.2-0.4,0.2-0.7l-0.7-7.6l3-0.3l0.6,6.6c0,0.5,0.5,0.9,1,0.9l1.4-0.1
			c0.2,0,0.5-0.1,0.6-0.3c0.2-0.2,0.2-0.4,0.2-0.7l-0.6-6.7l2.9-0.2l0.7,7.6c0,0.5,0.5,0.9,1,0.9c0,0,0,0,0,0l1.4-0.1
			c0.2,0,0.5-0.2,0.6-0.3c0.2-0.2,0.2-0.4,0.2-0.7l-0.9-10.1C120.1,57.9,119.6,57.5,119.1,57.5C119.1,57.5,119.1,57.5,119.1,57.5z"
			/>
		<path class="st0" d="M112.9,73.8c-2.1-0.6-4.3-0.4-6.2,0.5c-1.9,1-3.3,2.7-3.9,4.8c-0.7,2.3-0.4,4.8,0.9,6.8
			c0.1,0.2,0.3,0.4,0.6,0.4c0.2,0.1,0.5,0,0.7-0.1l1.3-0.7c0.4-0.3,0.6-0.8,0.4-1.3c-0.8-1.2-1-2.8-0.6-4.2c0.3-1.1,1.1-2.1,2.2-2.6
			c2.4-1.1,5.2-0.3,6.6,1.9c0.6,1,0.7,2.3,0.4,3.4c-0.4,1.4-1.4,2.5-2.6,3.1c-0.2,0.1-0.4,0.3-0.4,0.6c-0.1,0.2,0,0.5,0.1,0.7
			l0.8,1.3c0.2,0.3,0.5,0.5,0.8,0.5c0.2,0,0.3,0,0.5-0.1c2-1.1,3.5-2.9,4.1-5.2c0.6-2.1,0.4-4.3-0.7-6.2
			C116.7,75.7,115,74.3,112.9,73.8z"/>
		<path class="st0" d="M112.1,93c-0.2-0.2-0.5-0.2-0.7-0.2c-0.2,0-0.5,0.2-0.6,0.4l-2.2,3l-9.2-6.9c-0.2-0.1-0.5-0.2-0.7-0.2
			c-0.2,0-0.5,0.2-0.6,0.4l-1,1.3c-0.3,0.4-0.2,1,0.2,1.3l9.2,7l-2.2,3c-0.1,0.2-0.2,0.5-0.2,0.7c0,0.2,0.2,0.5,0.4,0.6l1.2,0.9
			c0.2,0.1,0.4,0.2,0.6,0.2c0.3,0,0.6-0.1,0.8-0.4l6.6-8.8c0.3-0.4,0.2-1-0.2-1.3L112.1,93z"/>
		<path class="st0" d="M92.4,96.8c-0.3-0.4-0.9-0.5-1.3-0.2l-1.2,1c-0.4,0.3-0.5,0.9-0.2,1.3l8.6,11c0.2,0.2,0.5,0.4,0.8,0.4
			c0.2,0,0.4-0.1,0.6-0.2l1.2-1c0.4-0.3,0.5-0.9,0.2-1.3c0,0,0,0,0,0L92.4,96.8z"/>
		<path class="st0" d="M87.2,101.2c-0.1-0.2-0.3-0.4-0.5-0.5c-0.2-0.1-0.5-0.1-0.7,0l-1.4,0.5c-0.5,0.2-0.7,0.7-0.6,1.2l3,8.2
			l-10.1-6.2c-0.2-0.2-0.6-0.2-0.8-0.1l-1.2,0.4c-0.2,0.1-0.4,0.3-0.5,0.5c-0.1,0.2-0.1,0.5,0,0.7l4.8,13.1c0.1,0.2,0.3,0.4,0.5,0.5
			c0.1,0.1,0.3,0.1,0.4,0.1c0.1,0,0.2,0,0.3-0.1l1.4-0.5c0.5-0.2,0.7-0.7,0.6-1.2c0,0,0,0,0,0l-2.9-7.9l9.8,6
			c0.2,0.2,0.5,0.2,0.8,0.1l1.4-0.5c0.3-0.1,0.5-0.3,0.6-0.5c0.1-0.2,0.1-0.5,0-0.7L87.2,101.2z"/>
		<path class="st0" d="M64.5,105.5L64.5,105.5c-2.3-0.1-4.6,0.6-6.4,2c-0.2,0.2-0.3,0.4-0.4,0.7l-0.4,5.6c0,0.5,0.4,0.9,0.9,1
			l5.8,0.4c0.5,0,0.9-0.4,1-0.9l0.1-1.4c0-0.5-0.4-1-0.9-1c0,0,0,0,0,0l-3.3-0.2l0.1-2c1-0.5,2-0.8,3.1-0.7c2.8,0.1,4.4,2.1,4.2,5.1
			c0,2.5-2,4.5-4.5,4.5c-0.1,0-0.1,0-0.2,0c-1.3,0-2.6-0.6-3.5-1.6c-0.2-0.2-0.4-0.3-0.7-0.3c-0.3,0-0.5,0.1-0.7,0.3l-1.1,1.1
			c-0.2,0.2-0.3,0.4-0.3,0.7c0,0.3,0.1,0.5,0.3,0.7c1.5,1.5,3.5,2.4,5.7,2.5c0.2,0,0.4,0,0.6,0c2,0,3.9-0.7,5.3-2.1
			c1.5-1.5,2.4-3.4,2.6-5.5c0.5-4.3-2.6-8.2-6.9-8.6C64.9,105.5,64.7,105.5,64.5,105.5z"/>
		<path class="st0" d="M38.7,91.2c-0.2-0.3-0.6-0.5-1-0.4l-8.9,2.3l5.7-7.2c0.2-0.3,0.2-0.8,0-1.1l-0.7-1.1c-0.2-0.3-0.6-0.5-1-0.4
			l-14.5,3.5c-0.3,0.1-0.5,0.3-0.7,0.6c-0.1,0.3-0.1,0.6,0.1,0.9l0.9,1.4c0.2,0.3,0.6,0.5,1,0.4l9.2-2.3l-5.9,7.4
			c-0.3,0.3-0.3,0.8,0,1.1l0.7,1.1c0.2,0.3,0.6,0.5,1,0.4l9.1-2.4l-5.8,7.5c-0.2,0.3-0.3,0.8,0,1.1l0.9,1.4c0.2,0.3,0.5,0.4,0.8,0.4
			l0,0c0.3,0,0.6-0.1,0.8-0.4l9-11.9c0.2-0.3,0.2-0.8,0-1.1L38.7,91.2z"/>
		<path class="st0" d="M31.6,77.8l-1.5-10.1c0-0.2-0.2-0.5-0.4-0.6c-0.2-0.1-0.5-0.2-0.7-0.2l-1.4,0.2c-0.5,0.1-0.9,0.6-0.8,1.1
			l1.1,7.6l-3,0.4L24,69.6c-0.1-0.5-0.6-0.9-1.1-0.8L21.5,69c-0.2,0-0.5,0.2-0.6,0.4c-0.1,0.2-0.2,0.5-0.2,0.7l1,6.6l-2.8,0.4
			l-1.1-7.5c0-0.3-0.2-0.5-0.4-0.6c-0.2-0.1-0.5-0.2-0.7-0.2L15.2,69c-0.5,0.1-0.9,0.6-0.8,1.1l1.5,10c0,0.2,0.2,0.5,0.4,0.6
			c0.2,0.1,0.4,0.2,0.6,0.2H17l13.8-2C31.3,78.8,31.6,78.4,31.6,77.8C31.6,77.8,31.6,77.8,31.6,77.8z"/>
		<path class="st0" d="M18.8,62.2c3.2,0.8,4.9-1.5,6.1-4.2s1.8-2.5,2.4-2.4c1,0.2,1.1,1.5,0.9,2.4c-0.3,1.5-1.3,2.9-2.6,3.7
			c-0.2,0.2-0.4,0.4-0.4,0.6c0,0.3,0,0.5,0.2,0.7l0.9,1.2c0.2,0.2,0.5,0.4,0.8,0.4c0.2,0,0.4-0.1,0.5-0.2c2-1.3,3.3-3.3,3.9-5.6
			c0.4-1.4,0.3-2.9-0.3-4.2c-0.6-1.3-1.8-2.2-3.1-2.5c-3.2-0.8-4.9,1.8-6,4l0,0c-1.3,2.8-1.9,2.7-2.4,2.6c-0.3-0.1-0.6-0.3-0.8-0.6
			c-0.2-0.5-0.2-1.1-0.1-1.6c0.3-1.2,1-2.3,2-3c0.2-0.2,0.3-0.4,0.4-0.7c0-0.3,0-0.5-0.2-0.7l-1-1.2c-0.3-0.4-0.9-0.4-1.3-0.1
			c-1.6,1.2-2.7,3-3.1,4.9C14.6,58.8,16.1,61.6,18.8,62.2z"/>
		<path class="st0" d="M20.5,44.7l1.2,0.8c0.2,0.1,0.5,0.2,0.7,0.1c0.2-0.1,0.5-0.2,0.6-0.4l2-3.1l9.7,6.3c0.2,0.1,0.3,0.1,0.5,0.2
			c0.1,0,0.1,0,0.2,0c0.2-0.1,0.5-0.2,0.6-0.4l0.9-1.3c0.3-0.4,0.1-1-0.3-1.3L27,39.1l2-3.1c0.1-0.2,0.2-0.5,0.1-0.7
			c-0.1-0.2-0.2-0.5-0.4-0.6l-1.2-0.8c-0.2-0.1-0.5-0.2-0.7-0.1c-0.2,0-0.5,0.2-0.6,0.4l-6,9.2C19.9,43.8,20,44.4,20.5,44.7
			C20.5,44.7,20.5,44.7,20.5,44.7z"/>
		<path class="st0" d="M79.5,83l0.8,0.3l0.9,0.2c0.8,0.2,1.6,0.2,2.3,0.4c0.6,0.3,1.3,0.4,1.9,0.5c0.3,0,1.1,0.2,1.4,0.2
			s1.5,0.1,1.4-0.1s-0.6-0.1-0.7-0.2c-0.2-0.1-0.5-0.2-0.7-0.2c-0.8-0.1-1.6-0.3-2.3-0.7c-0.6-0.3-1.1-0.6-1.7-0.9
			c-0.5-0.2-1.1-0.3-1.6-0.6l-0.8-0.4l-0.8-0.4L79,80.9l-0.7-0.3c-0.2-0.1-0.4-0.2-0.7-0.4L77,79.8c-0.3-0.2-0.6-0.3-0.9-0.4
			c-0.3-0.1-0.6-0.3-0.8-0.5c-0.2-0.1-0.3-0.3-0.5-0.4l-0.5-0.5c-0.2-0.2-0.3-0.3-0.4-0.5S73.6,77,73.6,77s0.4,0.2,0.6,0.3l0.6,0.3
			c0.4,0.2,0.7,0.4,1.1,0.6c0.3,0.2,0.7,0.3,1.1,0.3c0.1,0,0.2,0,0.3,0c0.2,0,0.3,0.4,0.5,0.4s0.1-0.4-0.1-0.6
			c-0.3-0.4-0.7-0.7-1.2-0.9c-0.4-0.2-0.8-0.4-1.2-0.6l-0.2-0.1c-0.7-0.3-1.4-0.8-1.9-1.4c-0.1-0.1-0.2-0.3-0.3-0.5
			s-0.5-0.4-0.6-0.6c-0.2-0.4-0.3-0.7-0.2-0.7c0.1,0.1,0.2,0.1,0.3,0.2l0.7,0.6c0.3,0.2,0.6,0.5,0.8,0.7c0.3,0.2,0.6,0.3,0.9,0.5
			c0.2,0.1,0.4,0.2,0.6,0.2c0.1,0,0-0.1-0.3-0.3s-0.4-0.3-0.6-0.5s-0.3-0.4-0.5-0.6c-0.4-0.4-0.7-0.7-0.5-0.6
			c0.3,0.1,0.5,0.3,0.8,0.5l0.8,0.5c0.3,0.2,0.6,0.3,0.9,0.6s0.7,0.4,1,0.6c0.3,0.2,0.6,0.3,0.9,0.4l0.9,0.4
			c0.2,0.1,0.4,0.3,0.6,0.3l0.7,0.3c0.3,0.1,0.6,0.2,0.9,0.1c0.1-0.1,0.3-0.1,0.4-0.1c0.2,0,0.3,0.3,0.7,0.3l0.7,0.1l0.7,0.1
			c0.2,0,0.4,0.1,0.6,0.1h0.3c0.2,0,0.5,0,0.7,0c0.2,0,0.9-0.2,0.9-0.3s-0.7-0.1-0.9-0.2s-0.5-0.2-0.8-0.3s-0.6-0.1-0.9-0.2
			s-0.6-0.1-0.9-0.2s-0.6-0.3-0.9-0.4L80.8,76c-0.3-0.1-0.6-0.2-0.8-0.4c-0.3-0.1-0.5-0.2-0.7-0.4c-0.2-0.1-0.4-0.2-0.6-0.4
			c-0.2-0.1-0.3-0.3-0.5-0.4c-0.2-0.2-0.3-0.3-0.4-0.5l-0.5-0.6c-0.2-0.2-0.3-0.4-0.6-0.6c-0.3-0.4-0.5-0.8-0.7-1.2
			c-0.2-0.3-0.6-1-0.6-1.3s0.6,0.2,1,0.4s0.7,0.6,0.9,0.8s0.5,0.5,0.8,0.7c0.2,0.1,0.5,0.3,0.7,0.4l0.8,0.4c0.3,0.1,0.5,0.4,0.8,0.5
			s1,0.4,1.3,0.6c0.7,0.2,1.3,0.3,2,0.2c0.2-0.1-0.4-0.2-1-0.4c-0.5-0.2-1.1-0.4-1.5-0.8c0-0.1,0.4-0.2,0.3-0.4s-1.6-0.9-1.5-1
			c0.4,0.1,0.8,0.3,1.1,0.4c0.5,0.2,1,0.4,1.5,0.4c0.2-0.1-0.7-0.4-1-0.7c-0.6-0.3-0.6-0.6-1.2-0.9c-0.7-0.4-1.4-0.8-2-1.2
			c-0.8-0.3-1.6-0.9-2.1-1.6c-0.2-0.2-0.2-0.5-0.2-0.8c0-0.2,0-0.5-0.2-0.6c-0.2,0-0.3-0.1-0.4-0.2c-0.2-0.2-0.2-0.4-0.2-0.7
			c-0.1-0.3-0.3-0.6-0.5-0.7c-0.2-0.2-0.4-0.3-0.3-0.4s0.4,0.1,0.5,0.2c0.3,0.3,0.6,0.5,0.8,0.8c0.2,0.2,0.4,0.3,0.6,0.5l0.6,0.4
			l0.6,0.4c1.1,0.7,2.4,1.3,3.7,1.6c0.5,0.1,1.1,0.2,1.7,0.3c0.3,0,0.4,0.1,0.7,0.2s0.7,0.1,0.8,0S84,69,84,68.9s1.2,0,1.1,0
			c-0.6-0.2-1.1-0.4-1.7-0.5c-0.4-0.1-0.9-0.3-1.2-0.6c-0.1-0.1-0.5-0.3-0.4-0.4c0.5,0.1,1,0.2,1.5,0.4c0.3,0.1,0.7,0.1,1,0.2
			s0.6,0.1,0.6,0s-0.7-0.4-0.9-0.4c-0.2,0-0.4-0.1-0.6-0.2c-0.6-0.3-1.2-0.5-1.8-0.8c-0.6-0.2-1.2-0.5-1.8-0.9
			c-0.2-0.2-0.4-0.4-0.6-0.6c0,0-0.1-0.1-0.1-0.2c0-0.1,0-0.1,0-0.2c-0.1-0.3-0.2-0.6-0.4-0.8c-0.2-0.3-0.5-0.5-0.7-0.7
			c-0.3-0.2-0.5-0.4-0.8-0.6c-0.2-0.1-0.4-0.3-0.5-0.5c-0.1-0.2-0.2-0.4-0.2-0.5c-0.1-0.3-0.2-0.5-0.3-0.7c-0.1-0.2-0.3-0.5-0.5-0.7
			c-0.2-0.2-0.4-0.4-0.6-0.6l-0.5-0.5L74,58.6c-0.2-0.2-0.3-0.4-0.4-0.5s-0.4-0.6-0.4-0.6c0.2,0.1,0.4,0.3,0.6,0.4l0.6,0.4l0.6,0.4
			c0.2,0.1,0.4,0.3,0.6,0.4s0.5,0.3,0.8,0.4c0.3,0.2,0.6,0.3,0.8,0.4c0.3,0.1,0.8,0.3,0.9,0.2s-0.5-0.3-0.7-0.5s-0.4-0.5-0.6-0.6
			s-0.5-0.5-0.7-0.7l-0.7-0.8L75.1,57c-0.2-0.2-0.3-0.4-0.5-0.5c-0.2-0.2-0.4-0.3-0.6-0.5c-0.2-0.2-0.4-0.3-0.6-0.4
			c-0.3-0.2-0.6-0.4-0.6-0.7c0-0.1,0-0.2,0-0.3c0-0.1,0-0.1-0.1-0.2l-0.4-0.7c-0.1-0.2-0.5-0.5-0.6-0.8L71.1,52
			c-0.2-0.3-0.1-0.3-0.3-0.6s-0.4-1-0.3-1s0.4,0.6,0.7,0.9s0.4,0.4,0.6,0.7c0,0,0.1,0,0.1,0.1h0.1c0.5,0.1,0.5,0.4,0.9,0.8
			c0.3,0.3,0.6,0.5,0.9,0.8c0.3,0.2,0.7,0.5,1,0.7l0.5,0.3l0.8,0.4c0.2,0.1,0.4,0.2,0.7,0.3s0.7,0.2,0.8,0.2s-0.5-0.3-0.9-0.6
			l-0.6-0.4l-0.7-0.6l-0.7-0.5c-0.2-0.2-0.4-0.3-0.5-0.4l-0.5-0.6c-0.2-0.2-0.3-0.4-0.4-0.5l-0.4-0.5c-0.1-0.2-0.3-0.3-0.4-0.5
			c-0.2-0.2-0.3-0.3-0.5-0.5s-0.5-0.3-0.5-0.5c0-0.1-0.1-0.3-0.1-0.4c-0.1-0.3-0.3-0.5-0.4-0.8c-0.2-0.3-0.4-0.5-0.5-0.8
			S70,47.4,70,47.3c-0.6-1-1-2.2-1.2-3.3c-0.2-1.3-0.4-2.6-0.7-3.9c-0.1-0.6-0.7-1.7-0.9-0.7c-0.1,0.3-0.2,0.6-0.4,0.9
			c-0.1,0.2-0.1,0.4-0.1,0.6c-0.2,0.4-0.3,0.8-0.4,1.2c0,0.4-0.1,0.9-0.2,1.3c0,0.4-0.2,0.9-0.3,1.3c-0.3,0.4-0.5,0.7-0.9,1
			c-0.2,0.1-0.3,0.3-0.3,0.5c-0.2,0.4-0.3,0.9-0.5,1.3L63.8,48l-0.3,0.7l-0.3,0.7c-0.1,0.2-0.2,0.4-0.3,0.7s-0.3,0.6-0.4,0.9
			s-0.3,0.5-0.5,0.8s-0.4,0.5-0.6,0.8S61,53,61,53.2c-0.1,0.3-0.3,0.5-0.5,0.7c-0.2,0.2-0.5,0.5-0.6,0.6l-0.6,0.7l-0.6,0.7l-0.5,0.7
			c-0.2,0.2-0.3,0.5-0.5,0.7c-0.2,0.2-0.3,0.5-0.4,0.7c-0.1,0.2-0.6,0.6-0.5,0.7c0.3,0,0.6,0,0.9-0.2c0.2-0.1,0.4-0.3,0.5-0.5
			c0.2-0.2,0.4-0.4,0.6-0.6s0.4-0.5,0.6-0.7c0.1-0.1,0.1-0.2,0.2-0.2c0.1,0,0.1,0,0.2,0c0.1,0,0.2,0,0.3-0.1c0.3-0.1,1-0.3,1.2-0.7
			c0,0,0-0.1,0.1-0.1l0.1,0c0.2-0.2,0.4-0.4,0.5-0.6c0.2-0.3,0.6-0.8,0.7-0.8s0,0.6-0.1,0.9c0,0,0,0.1,0,0.1c0,0,0,0.1,0,0.1
			c0,0.2,0,0.4-0.1,0.5c-0.1,0.2-0.2,0.4-0.3,0.6l-0.5,0.7c-0.2,0.2-0.3,0.5-0.5,0.7s-0.4,0.5-0.6,0.7c-0.2,0.2-0.3,0.4-0.5,0.5
			c-0.2,0.2-0.4,0.3-0.5,0.5L59,60.2l-0.4,0.3l-0.4,0.4l-0.4,0.4l-0.4,0.4l-0.5,0.5c-0.2,0.2-0.4,0.4-0.6,0.6
			c-0.2,0.2-0.4,0.4-0.5,0.7c-0.2,0.2-0.3,0.5-0.3,0.8c-0.1,0.2-0.1,0.4-0.1,0.7c0,0.2-0.1,0.5-0.1,0.7c-0.1,0.2-0.2,0.4-0.3,0.7
			c-0.1,0.2-0.3,0.4-0.4,0.5l-0.5,0.5L53.5,68c-0.2,0.2-0.4,0.4-0.5,0.6c-0.2,0.2-0.4,0.4-0.6,0.5c-0.2,0.2-0.4,0.3-0.7,0.5
			s-0.5,0.2-0.8,0.4s-0.6,0.4-0.5,0.6s1,0,1,0s-0.2,0.4,0,0.6s0.7,0,0.9-0.1c0.3-0.1,0.7-0.2,1-0.4c0.3-0.2,0.6-0.4,0.8-0.6
			c0.2-0.2,0.5-0.3,0.8-0.3c0.9-0.4,1.7-1,2.5-1.7c0.8-0.7,1.6-1.4,2.4-2.1c0.2-0.2,0.4-0.6,0.5-0.5c-0.2,0.4-0.5,0.9-0.7,1.3
			c-0.7,1.3-1.4,2.6-2.2,3.9c-1.3,2.1-2.7,4.1-4.2,6c-0.7,0.9-1.5,1.7-2.2,2.5c-0.4,0.4-0.6,0.9-0.8,1.5c0,0,0,0.1,0,0.2
			c0.1,0.1,0.2,0.1,0.3,0c0.6-0.3,1.2-0.6,1.8-0.9c0.3-0.2,0.5-0.3,0.8-0.6c0.2-0.2,0.5-0.5,0.7-0.8c0.1-0.2,0.3-0.3,0.5-0.4
			c0,0,0.4-0.2,0.5-0.1c-0.4,0.9-1,1.7-1.7,2.3c-1.4,1.2-2.7,2.5-3.9,3.9c-0.3,0.3-0.9,1.3-0.7,1.4s0.7-0.4,0.8-0.3s0.1,0.1,0.1,0.1
			c0.1,0,0.1,0,0.2,0c0.2-0.1,0.4-0.3,0.4-0.5c0-0.2,0.1-0.3,0.3-0.4c0.2-0.1,0.5-0.1,0.7-0.1c0.1,0,0.2,0,0.3-0.1
			c0.5-0.3,0.5-0.3,1-0.6s0.8-0.6,1.3-0.5c-0.1,0.2-0.3,0.4-0.5,0.5c-1.5,0.8-2.8,2.1-4.3,2.8c-0.6,0.2-1.1,0.5-1.6,0.9
			c-0.4,0.3-0.8,0.8-0.9,1.4c0.7-0.1,1.3-0.3,1.9-0.6c1.2-0.6,2.4-1.2,3.7-1.6c1.1-0.4,2.2-0.9,3.1-1.7c0.9-0.7,1.9-1.3,2.9-2
			s1.8-1.4,2.7-2.1c0.2-0.1,0.3-0.2,0.5-0.3c0.2-0.1,0.4-0.1,0.6-0.2c0.6-0.2,1.2-0.7,1.6-1.2c0.9-1.1,1.8-2.3,2.5-3.6
			c0.3-0.5,0.6-1,0.9-1.4s0.6-0.1,0.8,0.2c0.2,0.5,0.5,0.9,0.8,1.3c0.2,0.1,0.2-0.7,0.4-0.4c0.1,0.1,0.2,0.2,0.3,0.3
			c1.4,1.6,2.8,3,4.4,4.4c1.7,1.3,3.6,2.3,5.6,3L79.5,83z M75.1,63c0.3,0.2,0.5,0.4,0.7,0.7c0.1,0.1,0.2,0.3,0.3,0.3
			c0.1,0,0.1,0,0.2,0c0.1,0,0.2,0.1,0.2,0.2c0.2,0.2,0.4,0.4,0.6,0.6s0.4,0.4,0.6,0.6c0.2,0.2,0.4,0.3,0.6,0.5
			c0.2,0.2,0.4,0.2,0.6,0.3l1,0.7c0.3,0.2,0.7,0.4,1,0.6s-0.1,0.3-0.4,0.2s-0.4-0.2-0.6-0.3s-0.3-0.1-0.5-0.2l-0.5-0.3l-0.5-0.3
			c-0.3-0.2-0.6-0.5-0.9-0.7s-0.6-0.4-0.9-0.7c-0.3-0.2-0.5-0.5-0.7-0.7c-0.2-0.3-0.4-0.5-0.6-0.8c-0.1-0.2-0.3-0.3-0.4-0.5
			c-0.2-0.2-0.5-0.4-0.4-0.4C74.6,62.6,74.9,62.8,75.1,63z M74.1,72.8c0.4,0.1,0.7,0.3,1.1,0.6c0.2,0.2,0.2,0.4,0,0.4
			s-0.4,0-0.8-0.5S73.9,72.8,74.1,72.8z M58.4,62.7c-0.2,0.2-0.4,0.4-0.6,0.4l0,0c0,0,0-0.1,0-0.1l0.4-0.6c0-0.1,0.1-0.2,0.2-0.3
			c0.2-0.1,0.5,0.1,0.4,0.2S58.6,62.5,58.4,62.7z M64.4,52.8c-0.1,0.2-0.3,0.3-0.5,0.5c-0.1,0.1-0.3,0.2-0.5,0.3c-0.1,0-0.2,0-0.2,0
			s0-0.2,0.1-0.2c0.4-0.2,0.5-0.4,0.5-0.7c0-0.2,0.1-0.3,0.2-0.5c0,0,0.6-0.6,0.7-0.5S64.6,52.5,64.4,52.8L64.4,52.8z M70.7,73.7
			L70.7,73.7c-0.2,0-0.3,0.1-0.4,0c-0.1-0.1-0.2-0.2-0.2-0.3c0-0.1-0.2-0.4-0.1-0.5s0.3,0.2,0.3,0.1c0.1,0,0.1-0.1,0.1-0.2
			c0-0.1,0-0.3,0.1-0.3s0.7,0.8,0.9,1.2s0.6,0.6,0.5,0.8C71.7,75.1,71.1,73.8,70.7,73.7z"/>
		<path class="st0" d="M64.4,92.5c0,0.2,0,0.3,0,0.5c0.1,0.2,0.2,0.3,0.2,0.4s-0.1,0.1-0.1,0.2s0,0.2,0.1,0.2h0.1
			c0.2,0,0.4,0.2,0.5,0.3c0.3,0.2,0.6,0.3,0.9,0.3c1,0.4,2.2,0.2,3.1-0.4c0.2-0.2,0.4-0.3,0.6-0.2S70,94,70.1,94c0,0,0.1,0,0.1-0.1
			c1.1-1.3,1-2.8,0.9-4.3c0-0.9-0.1-1.8-0.1-2.7c0-0.3,0-0.6-0.1-0.9c-0.1-0.3-0.3-0.6-0.4-0.8c-0.3-0.4-0.7-0.8-0.9-1.3
			c-0.2-0.3-0.2-0.7-0.4-1c-0.4-0.8-1-1.4-1.7-2c-0.2-0.2-0.4-0.5-0.5-0.8c-0.1-0.3-0.3-0.5-0.3-0.8c-0.1-0.3-0.2-0.6-0.4-0.9
			c-0.2-0.5-0.6-1.5-0.7-1.5c-0.1,0.6-0.2,1.1-0.2,1.7c-0.1,0.6-0.1,1.1-0.2,1.7l-0.1,0.9l-0.1,0.9c0,0.3,0,0.6,0,0.9s0,0.6,0,0.9
			s0,0.6-0.1,1S65,85.5,65,85.9c-0.1,0.8-0.1,1.7-0.2,2.5c0,0.2,0,0.4,0,0.6c0.1,0.3,0.1,0.5,0.2,0.7c0.1,0.4,0,0.8-0.1,1.2
			C64.6,91.4,64.5,91.9,64.4,92.5z"/>
		<path class="st0" d="M80.4,78.5c-0.2,0-0.4,0-0.6-0.1c-0.3-0.1-0.4-0.1-0.7-0.2c-0.2-0.1-0.5-0.1-0.6,0.1c0.1,0.2,0.3,0.3,0.4,0.4
			l0.5,0.3c0.6,0.4,1.2,0.7,1.8,1c0.5,0.2,1,0.4,1.5,0.4c0.4,0.1,0.9,0,1.3,0c0.2,0,0.4,0,0.3-0.1c-0.6-0.5-1.5-0.5-2.3-0.8
			C81.5,79.2,81,78.5,80.4,78.5z"/>
	</g>
</g>
</svg>
